<svg width="276" height="182" viewBox="0 0 276 182" xmlns="http://www.w3.org/2000/svg"><g fill-rule="nonzero" fill="none"><path d="M39.1 89.2l6.4-2.5-4.8 27.2c-.3 1.5.1 2.4 1 2.4.4 0 .7-.1 1.1-.3l-.5 2.9c-1.4.7-2.8 1.1-4.2 1.1-2.7 0-4.2-1.9-3.7-4.6l4.7-26.2zM59.4 105.6c-.5-1-1.4-1.5-2.5-1.5-2.3 0-3.4 1.8-4 5.2-.7 3.3-.3 5.2 2 5.2 1.2 0 2.4-.6 3.3-1.5l1.2-7.4zm7-7.1L63.7 114c-.3 2 .1 2.4 1 2.4.4 0 .7-.1 1.1-.3l-.5 2.9c-1.4.7-2.8 1.1-4.1 1.1-1.5 0-2.6-.6-3.2-1.6-1.5 1-3.1 1.6-4.9 1.6-5.4 0-7.4-3.9-6.2-10.8 1.2-6.9 4.6-10.8 9.9-10.8 1.9 0 3.5.7 4.6 2l5-2zM85.6 113.7h1.2c5 0 7.5-2.5 8.9-9.6 1.4-7.1-.3-9.6-5.2-9.6H89l-3.4 19.2zm-1.7-25h7.7c10.1 0 11.8 6.9 10.3 15.4s-5.7 15.4-15.8 15.4h-7.7l5.5-30.8zM110.1 109.2c-.7 3.4-.1 5.1 2.3 5.1s3.6-1.7 4.3-5.1c.7-3.4.1-5.1-2.3-5.1-2.3 0-3.7 1.7-4.3 5.1m1.3 10.8c-6 0-8.6-3.6-7.3-10.8 1.3-7.2 5.1-10.8 11.1-10.8s8.6 3.6 7.3 10.8c-1.2 7.2-5.1 10.8-11.1 10.8M130.7 89.2l6.4-2.5-4.8 27.2c-.3 1.5.1 2.4 1 2.4.4 0 .7-.1 1.1-.3l-.5 2.9c-1.4.7-2.8 1.1-4.2 1.1-2.7 0-4.2-1.9-3.7-4.6l4.7-26.2zM145.7 120c-5.7 0-8.8-3.6-7.5-10.8 1.4-7.6 6.1-10.8 11.1-10.8 5.7 0 7.3 3.9 5.5 8.3h-5.2c.7-1.4.4-2.6-1.2-2.6-2.1 0-3.5 1.4-4.2 5.3-.6 3.4.3 5 3.1 5 2.5 0 4.2-.7 6.8-2.1l-1 5.7c-2 .9-4.1 2-7.4 2M167.7 106.9c2 0 2.6-.8 2.7-1.6.2-.9-.5-1.7-2-1.7s-3.4.6-4.5 2.9c1 .2 2.3.4 3.8.4m-1.2 8c2.5 0 4.6-.7 7.1-2.1l-.9 5.2c-2.3 1-4.5 1.9-7.6 1.9-6.1 0-8.9-3.7-7.7-10.8 1.2-7.1 6-10.8 11.3-10.8 5.3 0 7.6 3.2 7.1 6.5-.6 3.3-3.3 6.4-8.9 6.4-1.7 0-3.1-.4-4.2-.7-.3 3.7 1.7 4.4 3.8 4.4M191.4 119.5l-2.3-30.8h6l1.4 21.8 9.2-21.8h6.3l-13.1 30.8zM220.8 88.7l-1.1 6h-6l1-6h6.1zm-8.1 11.7l6.4-2.5-2.8 16c-.3 1.5.1 2.4 1 2.4.4 0 .7-.1 1.1-.3l-.5 2.9c-1.4.7-2.8 1.1-4.2 1.1-2.7 0-4.2-2-3.7-4.6l2.7-15zM234.8 105.6c-.5-1-1.4-1.5-2.6-1.5-2.3 0-3.4 1.8-4.1 5.2-.7 3.3-.3 5.2 2.1 5.2 1.2 0 2.5-.6 3.3-1.5l1.3-7.4zm7.2-7.1l-2.7 15.5c-.3 2 0 2.4 1 2.4.4 0 .7-.1 1.1-.3l-.5 2.9c-1.4.7-2.8 1.1-4.2 1.1-1.5 0-2.7-.6-3.2-1.6-1.5 1-3.2 1.6-5 1.6-5.4 0-7.5-3.9-6.3-10.8 1.2-6.9 4.7-10.8 10.1-10.8 2 0 3.5.7 4.7 2l5-2z" fill="#A8B2B4"/><path d="M260.3 131.6c-.5 19.1-16.1 34.4-35.3 34.4-19 0-34.6-15.3-35.1-34.4h-15.5c.6 27.2 23.3 49.7 50.6 49.7s50.1-22.5 50.6-49.7h-15.3zM51.4 166c-19 0-34.6-15.3-35.1-34.4H.8c.6 27.2 23.3 49.7 50.6 49.7s50.1-22.5 50.6-49.7H86.7c-.5 19.1-16.1 34.4-35.3 34.4z" fill="#F29400"/><path d="M169 26.5l2.7-.6c.8 3.3 4.1 5.4 7.5 4.7 3.4-.7 5.5-4 4.9-7.4l2.7-.6c.9 4.8-2.2 9.6-7.1 10.6-4.8 1.2-9.6-1.9-10.7-6.7m26.4-6.2c0-11.1-9-20.1-20.1-20.1-11.1 0-20.1 9-20.1 20.1 0 5.2 2 9.9 5.2 13.4-6.8-3.5-14.5-5.5-22.6-5.5-27.3 0-50.1 22.5-50.6 49.7h15.3c.5-19.1 16.1-34.4 35.3-34.4 19 0 34.6 15.3 35.1 34.4h15.5c-.3-15.4-7.8-29.3-19.2-38.5 1.9.6 4 .9 6.1.9 11.1 0 20.1-9 20.1-20" fill="#006584"/></g></svg>