<?xml version="1.0" encoding="utf-8"?>
<!-- Generator: Adobe Illustrator 26.1.0, SVG Export Plug-In . SVG Version: 6.00 Build 0)  -->
<svg version="1.1" id="Calque_1" xmlns="http://www.w3.org/2000/svg" xmlns:xlink="http://www.w3.org/1999/xlink" x="0px" y="0px"
	 viewBox="0 0 768 768" style="enable-background:new 0 0 768 768;" xml:space="preserve">
<style type="text/css">
	.st0{fill:#1D1D1B;}
</style>
<g>
	<g>
		<g>
			<path class="st0" d="M648.6,409.8c2.7,0,5.5-1.2,7.4-3.1c1.8-1.8,3.2-4.8,3.1-7.4c-0.3-5.7-4.6-10.5-10.5-10.5
				c-2.7,0-5.5,1.2-7.4,3.1c-1.8,1.8-3.2,4.8-3.1,7.4C638.4,404.9,642.7,409.8,648.6,409.8L648.6,409.8z"/>
		</g>
	</g>
	<g>
		<g>
			<path class="st0" d="M108.8,420.2c2.7,0,5.5-1.2,7.4-3.1c1.8-1.8,3.2-4.8,3.1-7.4c-0.3-5.7-4.6-10.5-10.5-10.5
				c-2.7,0-5.5,1.2-7.4,3.1c-1.8,1.8-3.2,4.8-3.1,7.4C98.5,415.4,102.9,420.2,108.8,420.2L108.8,420.2z"/>
		</g>
	</g>
	<g>
		<path class="st0" d="M403.7,548.9c-14.4-5.8-30.8-11.5-45.7-4.2c-3.4,1.7-6.6,3.5-10.5,2.9c-3.9-0.5-7.5-2.4-11.1-3.9
			c-7.8-3.1-15.9-5.1-24.2-6.1c-5.7-0.7-15.2,1-14.8,8.6c0.2,3.4,5.4,3.4,5.3,0c0-0.2,0-0.5,0-0.7c0,0,0.1-0.2,0.1-0.3
			c0,0,0.1-0.3,0.2-0.4c0.2-0.3-0.1,0,0.3-0.3c0.5-0.5,1.5-1,2.3-1.2c2.4-0.7,4.9-0.6,7.6-0.3c7.7,1,15.3,3.1,22.5,6
			c3.5,1.4,7,3.1,10.7,3.6c4.2,0.6,7.8-0.3,11.5-2.1c3.2-1.6,6.3-3.1,9.9-3.7c3.4-0.6,7-0.6,10.5-0.2c8.3,1,16.3,4.1,24,7.2
			c1.3,0.5,2.9-0.6,3.2-1.8C406,550.6,405.1,549.4,403.7,548.9z"/>
		<path class="st0" d="M423.8,272c1,2.4,2,4.7,3,7.1c0.1,0.3,0.3,0.7,0.4,1c5.4,15.1,21.4,22.9,36.7,23.2c8.7,0.1,18.1-2.1,24.8-7.9
			c6.2-5.4,9.4-13.4,10.3-21.4c2.1-17.3-6.6-36.7-23-44c-7.8-3.5-16.5-4.5-24.9-2.6c-8.2,1.8-15.4,6.6-20.5,13.2
			c-5.2,6.7-8.3,15-8.4,23.5c0,2-0.1,4.5,0.7,6.3C423.3,270.9,423.5,271.5,423.8,272z M428,259.3c0.6-3.6,1.8-7.1,3.5-10.4
			c3.4-6.5,8.9-11.9,15.7-14.8c6.6-2.8,14.2-3.2,21.2-1.4c7.3,1.9,13.9,6.2,18.3,12.4c4.6,6.5,7.3,14.5,7.5,22.4
			c0.2,7-1.3,14.3-5.4,20.1c-4.5,6.4-12.2,9.3-19.6,10.1c-12.9,1.4-28-3.2-34.9-14.9c-0.8-1.4-1.5-2.8-2-4.2
			c-0.1-0.2-0.1-0.3-0.2-0.5c0-0.1,0-0.1-0.1-0.2c-1.4-3.3-2.9-6.7-4.3-10c0.2,0.5,0-0.3,0-0.7c-0.1-1-0.1-1.9-0.1-2.9
			C427.6,262.8,427.7,261.1,428,259.3z"/>
		<path class="st0" d="M319.3,241.8C319.3,241.8,319.3,241.8,319.3,241.8C319.3,241.8,319.3,241.8,319.3,241.8
			c-0.1-0.1-0.1-0.2-0.2-0.2c0.3,0.5,0.4,0.5,0.3,0.4C319.4,241.9,319.3,241.9,319.3,241.8C319.3,241.8,319.3,241.8,319.3,241.8z"/>
		<path class="st0" d="M367.2,287.2C367.2,287.2,367.2,287.2,367.2,287.2c-0.3-0.1-0.3-0.1-0.2,0c0,0,0,0,0,0
			C367,287.2,367.1,287.2,367.2,287.2z"/>
		<path class="st0" d="M140.3,284.8c1-0.3,1.8-1,2.3-2c0.2-0.3,0.3-0.6,0.3-0.8l6.5-13.7c0.3-0.7,0.3-1.3,0.1-2
			c-0.2-0.6-0.6-1-1.1-1.3c-0.6-0.3-1.2-0.3-1.8-0.1c-0.6,0.2-1.1,0.6-1.5,1.3l-5.1,10.7c-17-8.8-33.8-18.4-50.5-29l-0.2-0.1
			c-0.8-0.4-1.7-0.5-2.7-0.3c-1.1,0.3-2,1-2.5,2.1c-0.5,0.9-0.6,1.9-0.4,2.8c0.2,1,0.8,1.7,1.7,2.3c17.3,10.9,34.6,20.8,52,29.8
			C138.3,285,139.3,285.1,140.3,284.8z"/>
		<path class="st0" d="M102,222.4l0.2,0.1c13.8,7.8,27.3,16.2,40.5,25.1c2.6,1.8,5.2,3.6,7.9,5.4c0.9,0.6,1.8,0.8,2.8,0.6
			c1-0.2,1.9-0.8,2.6-1.7l3.6-5.2l3.5-5.2l3.7-5.4c0.4-0.6,0.5-1.3,0.4-1.9c-0.1-0.7-0.4-1.2-0.9-1.5c-0.5-0.3-1-0.4-1.7-0.3
			c-0.7,0.1-1.2,0.5-1.6,1.1l-8.4,12.4l-6.7-4.6c-3.3-2.2-6.4-4.3-9.2-6.1l7.7-10.5c0.4-0.6,0.6-1.3,0.5-2c-0.1-0.6-0.4-1.2-1-1.6
			c-0.5-0.3-1-0.4-1.6-0.3c-0.6,0.1-1.2,0.5-1.6,1.1l-7.9,10.8c-8.8-5.7-18-11.2-27.4-16.6l6.2-10.7c0.4-0.6,0.5-1.3,0.3-1.9
			c-0.2-0.6-0.5-1.1-1-1.5c-1.3-0.6-2.4-0.4-3.3,0.9l-0.1,0.1c-3.6,6.1-6.4,10.8-8.4,14.2c-0.5,1-0.7,2-0.4,3
			C100.7,221.1,101.2,221.8,102,222.4z"/>
		<path class="st0" d="M137.8,195c1.7,1.5,3.8,2.6,6,3.1c1.5,0.3,3.3,0.4,5.3,0.4c1.7,0,3.4-0.1,5.2-0.2c4.8-0.3,8.6-0.2,11.5,0.2
			c2.1,0.3,4.3,0.9,7,1.9c2.6,1,4.8,2.3,6.7,4c2.8,2.5,3.3,5.6,1.5,9.1c-0.6,1-1.1,1.9-1.8,2.6c-0.7,0.8-1.7,1.5-2.7,1.9
			c-1.7,0.6-4,0.8-6.8,0.5c-0.8,0-1.5,0.2-2.1,0.9c-0.4,0.4-0.6,1-0.7,1.6c0,0.8,0.2,1.4,0.8,1.9c0.4,0.3,0.8,0.5,1.3,0.5
			c3.6,0.4,6.6,0.1,9.1-0.9c1.7-0.7,3.3-1.8,4.6-3.4l0.5-0.6c0.8-1,1.5-2,2-3c1.1-2,1.7-3.9,1.8-5.7c0.2-5-1.7-9.5-5.6-13.5
			c-1.2-1-2.4-1.8-3.8-2.5c-5.7-2.9-13.5-4-23.3-3.2c-1.8,0.1-3.4,0.2-4.8,0.2c-1.8,0-3.5,0-5.3-0.3c-2-0.2-3.6-0.9-4.8-2
			c-0.9-0.8-1.6-2-2.1-3.5c-0.2-0.5-0.2-1.2-0.2-2c-0.1-3.2,1.2-6.4,3.9-9.4c0.7-0.8,1.3-1.4,1.7-1.7c0.5-0.4,0.9-0.6,1-0.8
			c0.3-0.4,0.5-0.8,0.6-1.2c0.2-0.9-0.1-1.6-0.7-2.2c-0.3-0.2-0.7-0.4-1.2-0.5c-1.1-0.2-2.7,0.9-4.9,3.3l-1.1,1.3
			c-1.8,2.2-3.1,4.7-3.7,7.5c-0.7,2.9-0.7,5.3-0.1,7.4C133.6,190,135.3,192.8,137.8,195z"/>
		<path class="st0" d="M218,181.3c0.6,0.8,1.5,1.3,2.5,1.5c1,0.2,2-0.1,3-0.7c0.3-0.2,0.5-0.4,0.7-0.6l12.2-9.1c0.6-0.5,0.9-1,1-1.7
			c0.1-0.6,0-1.2-0.4-1.7c-0.4-0.5-0.9-0.8-1.5-0.9c-0.7-0.1-1.3,0.1-1.9,0.5l-9.5,7.1c-10.9-15.7-21.3-32.1-31.2-49.3l-0.1-0.2
			c-0.5-0.7-1.3-1.3-2.2-1.5c-1.1-0.3-2.2,0-3.2,0.7c-0.8,0.6-1.4,1.4-1.6,2.3c-0.3,1-0.1,1.9,0.4,2.9
			C196.1,148.4,206.8,165.3,218,181.3z"/>
		<path class="st0" d="M221.8,140c1.2,2.1,2.5,4.2,3.9,6.2c5.3,7.6,10.4,12.1,15.4,13.4c4.1,1.3,7.6,1.2,10.4-0.4
			c2.5-1.4,4.2-3.9,5.1-7.7c0.6-2.2,0.6-5,0-8.5c-1-5.4-3.4-11.5-7.2-18.2c-3.1-5.6-6.6-10.2-10.4-13.9c-2.8-2.7-5.4-4.6-7.8-5.8
			c-4.7-2.3-8.5-2.7-11.4-1.1c-2.7,1.5-4.4,4.9-5,10.1c-0.3,2.7-0.1,6,0.7,9.8C216.8,129.4,218.9,134.6,221.8,140z M222.4,114.7
			c0.3-2.3,1-3.9,2.1-5c0.2-0.2,0.4-0.3,0.6-0.4c1.9-1.1,5.3,0.7,10.1,5.3c3.6,3.5,6.8,7.8,9.7,13c1.2,2.1,2.3,4.2,3.2,6.4
			c1.7,3.9,2.9,7.4,3.5,10.6c0.7,4.5,0.3,7.2-1.1,8c-0.9,0.5-2.1,0.7-3.7,0.7c-1.2,0-2.3-0.2-3.2-0.4c-1.4-0.4-3-1.4-4.9-3
			c-3.6-3.2-7-7.6-10.2-13.4c-2.8-5-4.7-9.7-5.6-14.2C222.3,119.2,222.2,116.7,222.4,114.7z"/>
		<path class="st0" d="M252.8,92.1c2.4,5.1,4.6,10.3,6.6,15.5c4.5,11.5,8.2,23.7,11,36.4l0.2,0.5c0.3,0.7,0.8,1.3,1.6,1.9
			c1,0.7,2.3,0.7,3.9,0.1c2.1-0.8,3.9-2.4,5.6-4.8c1.7-2.4,3.1-5.1,4.2-8.1c1.1-3,1.7-5.6,1.9-7.7c0.6-6.7-0.3-13.3-2.8-19.7
			c-1.8-4.6-4.3-8.6-7.4-12c-1.6-1.6-3.7-3.1-6.4-4.6c-2.7-1.5-5.4-2.5-8.3-3.1c-2.9-0.6-5.4-0.5-7.6,0.3c-1.2,0.5-2,1.3-2.4,2.5
			c-0.4,0.9-0.3,1.7,0,2.6L252.8,92.1z M273.7,97.5c2.8,3,5,6.5,6.6,10.6c2.2,5.7,3.1,11.6,2.5,17.7c-0.6,6.3-2.3,10.7-5.2,13.4
			c-2.5-11.3-6.1-22.9-10.7-34.8c-1.9-4.8-3.7-9.1-5.4-13C265.6,91.2,269.6,93.2,273.7,97.5z"/>
		<path class="st0" d="M298.1,105.6c1.5,6.1,3.5,11.4,6.3,16.1c2.9,5.2,6.4,8.8,10.4,10.9s8.9,2.4,14.9,0.9c2.1-0.5,3-1.9,2.5-4.2
			l-2.1-9.1c-0.6-2.4-1.3-5.2-2.2-8.5c-1.9-7.3-3.8-11.3-5.6-11.9c-0.9-0.1-2.4,0.2-4.6,0.7c-2.1,0.5-3.6,0.9-4.6,1.3
			c-1.6,0.6-2.3,1.6-2,2.9c0.4,1.6,1.6,2.1,3.6,1.7c0.8-0.2,1.4-0.4,1.9-0.5c0.5-0.2,1.7-0.5,3.5-0.9c0.9,3.9,2,8,3.3,12.3
			c1.3,4.3,2.4,8.3,3.3,12.1c-0.1,0-1.1-0.1-3-0.3c-1.9-0.2-3.4-0.5-4.4-0.9c-1.7-0.7-3.4-1.8-5-3.5c-1.6-1.7-2.8-3.5-3.6-5.4
			c-1.5-3-2.8-7-4-12c-0.1-0.5-0.6-2.4-1.3-5.6c-0.7-3.2-1.2-7.6-1.4-13.2c-0.2-5.7,0.5-9.9,2.1-12.7c0.4-0.7,1-1.2,1.5-1.6
			c0.6-0.4,1.1-0.7,1.7-1c2-0.8,2.8-1.8,2.5-3c-0.2-0.8-0.9-1.3-2-1.5c-0.5-0.1-1-0.1-1.6,0.1c-3,0.7-5.4,2.3-7.2,4.7
			c-1.8,2.4-3,5.3-3.7,8.6c-0.7,3.3-1,6.9-0.9,10.8C296.5,97.1,297.1,101.3,298.1,105.6z"/>
		<path class="st0" d="M334.2,68c2.8,15.6,5,31.3,6.7,47.2c0.3,3.2,0.6,6.3,0.9,9.5c0.1,1,0.5,1.9,1.3,2.6c0.8,0.7,1.8,0.9,3,0.9
			l6.3-0.6l6.2-0.7l6.5-0.7c0.7-0.1,1.3-0.4,1.7-0.9c0.4-0.5,0.6-1.1,0.6-1.7c-0.1-0.6-0.3-1.1-0.9-1.6c-0.5-0.4-1.2-0.6-1.9-0.5
			l-14.9,1.5l-0.8-8.1c-0.4-4-0.8-7.7-1.2-11l13.1-0.8c0.8-0.1,1.4-0.4,1.8-0.9c0.4-0.5,0.6-1.1,0.6-1.7c-0.1-0.6-0.3-1.1-0.8-1.5
			c-0.5-0.4-1.1-0.6-1.8-0.6l-13.4,0.8c-1.3-10.5-2.9-21-4.8-31.7l12.2-2.1c0.7-0.1,1.3-0.5,1.6-1c0.4-0.5,0.5-1.1,0.5-1.7
			c-0.4-1.4-1.3-2.1-2.8-1.9l-0.1,0c-7,1.1-12.4,2-16.3,2.7c-1.1,0.2-2,0.8-2.6,1.6c-0.6,0.8-0.8,1.6-0.7,2.6L334.2,68z"/>
		<path class="st0" d="M382.9,126.3c1.6,0.9,3.5,1.3,5.6,1.4l0.8,0c1.3,0,2.5-0.1,3.6-0.4c2.3-0.4,4.1-1.2,5.6-2.3
			c3.9-3,6.2-7.3,6.8-13c0-1.5-0.2-3-0.5-4.5c-1.4-6.2-5.6-12.9-12.5-20c-1.2-1.3-2.3-2.5-3.2-3.6c-1.2-1.3-2.2-2.7-3.2-4.2
			c-1.1-1.7-1.6-3.3-1.6-4.9c0-1.3,0.5-2.5,1.4-3.8c0.3-0.5,0.8-0.9,1.4-1.4c2.4-2.2,5.6-3.2,9.7-3c1.1,0,1.9,0.1,2.4,0.2
			c0.6,0.1,1,0.2,1.2,0.3c0.5,0,1-0.1,1.3-0.3c0.8-0.5,1.2-1.1,1.2-2c0-0.3-0.1-0.8-0.3-1.2c-0.5-1-2.4-1.5-5.7-1.6l-1.7,0
			c-2.8,0-5.5,0.6-8.1,2c-2.6,1.3-4.5,2.9-5.7,4.6c-2,2.8-3,5.9-3.2,9.3c-0.1,2.3,0.4,4.5,1.5,6.6c0.8,1.4,1.8,2.8,3.1,4.3
			c1.1,1.3,2.3,2.6,3.5,3.9c3.3,3.5,5.7,6.5,7.2,9c1.1,1.8,2.1,3.9,3,6.6c0.9,2.6,1.3,5.2,1.2,7.7c-0.1,3.8-2.1,6.1-6,7
			c-1.1,0.2-2.2,0.3-3.2,0.3c-1.1,0-2.2-0.3-3.2-0.8c-1.6-0.9-3.2-2.5-4.7-4.9c-0.5-0.7-1.2-1-2-1.1c-0.6,0-1.1,0.1-1.7,0.5
			c-0.6,0.5-0.9,1.1-1,1.8c0,0.5,0.1,0.9,0.4,1.3C378.3,122.9,380.5,125,382.9,126.3z"/>
		<path class="st0" d="M444.2,131.2c2.1,0.6,4.6,0.4,7.3-0.5c2.8-0.9,5.6-2.3,8.2-4c2.6-1.8,4.7-3.5,6.1-5c4.5-5,7.7-10.8,9.5-17.4
			c1.3-4.7,1.7-9.5,1.2-14.1c-0.3-2.2-1.1-4.7-2.4-7.5c-1.3-2.8-2.9-5.2-4.8-7.5c-1.9-2.2-4-3.7-6.3-4.3c-1.2-0.3-2.4-0.2-3.4,0.5
			c-0.8,0.5-1.3,1.2-1.6,2.1l0,0.2c-1.1,5.6-2.5,11-4,16.4c-3.3,11.9-7.6,23.9-12.9,35.8l-0.2,0.5c-0.2,0.7-0.1,1.6,0.2,2.5
			C441.6,130,442.6,130.8,444.2,131.2z M462,91.8c1.4-4.9,2.5-9.5,3.4-13.7c3.4,2.4,5.5,6.5,6.2,12.3c0.4,4.1,0.1,8.2-1.1,12.4
			c-1.6,5.9-4.5,11.2-8.5,15.7c-4.2,4.6-8.2,7.2-12.1,7.6C454.6,115.6,458.6,104.2,462,91.8z"/>
		<path class="st0" d="M476.8,141c0.4,1,1.1,1.7,2.2,2.2l5.8,2.5l5.8,2.4l6,2.6c0.7,0.3,1.3,0.3,2,0c0.6-0.3,1.1-0.6,1.3-1.2
			c0.2-0.6,0.2-1.1,0-1.8c-0.3-0.6-0.7-1.1-1.4-1.4l-13.8-5.9l3.2-7.4c1.6-3.7,3-7.1,4.3-10.2l11.8,5.6c0.7,0.3,1.4,0.3,2,0.1
			c0.6-0.2,1.1-0.7,1.3-1.3c0.2-0.5,0.2-1.1,0-1.7c-0.2-0.6-0.7-1.1-1.3-1.4l-12.1-5.7c3.9-9.8,7.6-19.8,11.1-30.1l11.7,4.1
			c0.7,0.2,1.4,0.2,1.9-0.1c0.6-0.3,1-0.7,1.2-1.3c0.4-1.4-0.1-2.4-1.5-3l-0.1-0.1c-6.7-2.4-11.8-4.2-15.6-5.5
			c-1.1-0.3-2.1-0.3-3,0.2c-0.9,0.4-1.5,1.1-1.9,1.9l-0.1,0.2c-5.1,15-10.7,29.8-16.9,44.5c-1.2,2.9-2.5,5.8-3.8,8.7
			C476.5,139,476.5,140,476.8,141z"/>
		<path class="st0" d="M531.6,174.7c1,0.6,2,0.8,3,0.7c1-0.2,1.8-0.7,2.4-1.5c3.6-5.4,7-10.4,10.3-15.1l-0.6-0.6l0.6,0.3
			c6.8,2.3,13,2.1,18.8-0.5c3.6-1.7,6.6-4.1,8.9-7.2c2.7-3.7,4.2-7.9,4.4-12.7c0.1-2.8-0.6-6.2-1.9-10c-1.3-3.8-3.1-6.7-5.2-8.6
			l-0.2-0.1c-0.9-0.6-1.8-0.9-2.8-0.8c-1.8,0.2-8.5,8.3-20.2,24.2l-1.1,1.5c-12.4,16.9-18.4,26.3-18.1,27.9
			C530.1,173.1,530.7,174,531.6,174.7z M555.6,147.4c5.4-7.4,10.7-14.3,15.9-20.8c2.1,3.2,3,6.9,2.9,10.8c-0.2,3.9-1.4,7.3-3.6,10.3
			c-1.8,2.5-4.2,4.4-7.2,5.8c-4.3,2-8.7,2.3-13.3,0.9L555.6,147.4z"/>
		<path class="st0" d="M562.5,190.1l0.1,0.1c0.9,0.8,1.9,1.1,2.9,1c1-0.1,1.8-0.4,2.5-1.1l0.1-0.1c4.7-5.4,9.4-10.6,13.9-15.4
			l-0.4-0.3c1.6,0.9,3,1.5,4.1,1.8c0.1,4.2-0.6,7.9-2.1,11.2c-1.3,2.7-2.9,5.1-5,7.2c-0.6,0.7-1.3,1.3-2,1.9l-0.1,0.1
			c-0.4,0.4-0.6,0.9-0.6,1.6c0,0.6,0.3,1.3,0.9,1.8c0.5,0.5,1,0.7,1.6,0.7c0.9,0,2.2-0.9,4-2.7c2.3-2.4,4.2-5.2,5.7-8.4
			c1.8-3.7,2.6-7.8,2.5-12.4c2.6,0.4,5.2,0.3,8-0.6c3-0.9,5.6-2.5,7.7-4.7c2.4-2.5,3.9-5.7,4.4-9.4c0.3-2.6,0-5.7-0.9-9.4
			c-0.9-3.7-2.3-6.5-3.9-8.5c-0.9-0.8-1.8-1.3-2.9-1.3c-1,0-1.9,0.3-2.7,1c-6.2,6-12.3,12.1-18.2,18.4c-14,14.7-20.9,22.9-20.7,24.6
			C561.3,188.5,561.7,189.4,562.5,190.1z M587.9,168.3c5.6-5.9,11-11.4,16.4-16.6c1.6,3.1,2.1,6.3,1.6,9.6c-0.4,2.9-1.6,5.2-3.4,7.1
			c-1.5,1.6-3.4,2.8-5.7,3.5c-2.5,0.7-5.2,0.8-8.2,0h-0.1c-1.4-0.4-2.5-0.7-3-1L587.9,168.3z"/>
		<path class="st0" d="M579.9,212.7c-0.8,0.7-1.3,1.5-1.3,2.6c-0.1,1.1,0.2,2,0.9,2.9c0.7,0.9,1.7,1.4,2.7,1.5
			c1.1,0.1,2-0.1,2.8-0.8c4.2-3.5,8.3-6.6,12.3-9.4l7.6,9.3c-3.6,3.3-7.4,6.6-11.7,10.1c-0.5,0.4-0.7,0.9-0.8,1.6
			c-0.1,0.7,0.1,1.3,0.6,1.9c0.5,0.6,1,0.9,1.7,0.9c0.7,0.1,1.2-0.1,1.7-0.5l1.1-0.9c7.8-6.4,15.2-13.3,22-20.4
			c7-7.4,13.4-15.6,19.5-24.9c1.1-1.1,1.4-2.5,0.9-4.2c-0.2-0.4-0.4-0.8-0.7-1.1c-1.2-1.4-2.7-1.9-4.5-1.2
			c-19.3,7.6-37.4,18.4-54.3,32.3L579.9,212.7z M630.3,190.5c-5.6,8.2-12.9,16.6-21.9,25.1l-7.2-8.8
			C611.3,199.8,621,194.4,630.3,190.5z"/>
		<path class="st0" d="M601.2,240.8c-0.2,1,0,2,0.5,3c0.2,0.3,0.4,0.5,0.6,0.7l8.5,12.6c0.4,0.6,1,1,1.6,1.1c0.6,0.1,1.2,0,1.7-0.3
			c0.5-0.4,0.9-0.9,1-1.5c0.1-0.7,0-1.3-0.4-1.9l-6.6-9.8c16.2-10.2,33.1-19.7,50.7-28.8l0.2-0.1c0.8-0.5,1.3-1.2,1.6-2.2
			c0.3-1.1,0.1-2.2-0.6-3.3c-0.6-0.9-1.3-1.5-2.2-1.7c-1-0.3-1.9-0.2-2.9,0.2c-18.2,9.3-35.6,19.2-52.1,29.6
			C602,239,601.5,239.8,601.2,240.8z"/>
		<path class="st0" d="M683.3,248.8c-0.3-0.5-0.6-0.9-1.2-1.1c-0.5-0.3-1.1-0.4-1.7-0.2l-26.3,7.4l18.8-17.9
			c0.7-0.7,1.1-1.7,1.1-2.8c0-0.6-0.2-1.3-0.5-1.9c-0.7-1.5-1.9-2.2-3.3-2.3c-0.7,0-1.3,0.1-1.8,0.4c-0.3,0.2-0.6,0.4-0.9,0.6
			l-26.3,25l-17.3,11.3c-0.9,0.6-1.4,1.3-1.6,2.3c-0.2,1,0,1.9,0.5,2.9l0.2,0.3c0.7,1,1.5,1.6,2.4,1.7c0.9,0.2,1.8,0.1,2.6-0.3
			l9-5.8c5.8-3.8,8.8-5.8,9.2-6.1c23.9-6.8,36-10.2,36.1-10.3c0.4-0.2,0.7-0.5,1-1C683.7,250.4,683.7,249.7,683.3,248.8z"/>
		<path class="st0" d="M168.7,542.2l0.7-0.4l-0.8-1.2l-35.7,4.3l17.4-31.4l-0.3-0.4l0,0l0-0.1l-0.5-0.8l-0.7,0.4l-0.1,0L96.2,548
			l0.5,0.8l0.5,0.7l49.4-33.2L130,546l0.7,1l33.8-4.3L115,576l0.5,0.8l0.5,0.8L168.7,542.2L168.7,542.2z M168.7,540.8L168.7,540.8
			L168.7,540.8L168.7,540.8z"/>
		<polygon class="st0" points="150.1,513.2 150.1,513.1 150,513.1 150.2,513.2 		"/>
		<path class="st0" d="M190.1,568.3c0-0.8-0.2-1.6-0.5-2.5c-0.3-0.9-0.7-1.8-1.1-2.7c-0.5-0.9-1-1.7-1.6-2.5c-0.6-0.8-1.1-1.5-1.6-2
			c-0.6-0.6-1.2-1.2-2-1.8c-0.7-0.6-1.5-1.1-2.4-1.7c-0.8-0.5-1.7-0.9-2.6-1.3c-0.9-0.3-1.7-0.6-2.5-0.6c-2-0.2-3.8,0.1-5.7,0.9
			c-1.8,0.8-3.6,1.9-5.3,3.5l-26.6,24.6c-0.1,0.1-0.5,0.5-1.1,1c-0.6,0.6-1.3,1.3-2,2.2c-0.7,0.9-1.4,2-2,3.2
			c-0.6,1.2-1,2.6-1.1,4.1c-0.1,1.6,0.3,3.4,1.3,5.4s2.2,3.7,3.5,5.2c1.4,1.5,3,2.8,4.9,3.9c1.9,1.2,3.7,1.8,5.4,1.8
			c1.5,0,2.8-0.2,4.1-0.7c1.2-0.5,2.3-1,3.3-1.6c1-0.6,1.7-1.1,2.3-1.6c0.6-0.5,0.9-0.8,1-1l26.9-25
			C188.4,576,190.2,572.3,190.1,568.3z M183.6,577.9l-27.1,25c-1,0.9-1.9,1.6-2.7,2.2c-0.8,0.5-1.8,1-2.9,1.5
			c-1.1,0.5-2.3,0.7-3.6,0.7c-0.7,0-1.5-0.1-2.3-0.4c-0.8-0.3-1.6-0.7-2.4-1.2c-0.8-0.5-1.6-1-2.3-1.7c-0.7-0.6-1.4-1.2-2-1.9
			c-1.2-1.3-2.2-2.7-3.1-4.5c-0.9-1.7-1.3-3.3-1.2-4.6c0.1-1.3,0.4-2.5,1-3.6c0.6-1.1,1.2-2.1,1.9-2.9s1.5-1.8,2.7-2.7l26.6-24.7
			c1.9-1.8,3.7-2.9,5.4-3.4c1.7-0.5,3.3-0.6,4.9-0.3c1.5,0.3,2.9,0.9,4.2,1.7c1.3,0.9,2.3,1.8,3.3,2.8c0.5,0.5,1,1.2,1.6,1.9
			c0.6,0.8,1,1.6,1.5,2.5c0.4,0.9,0.8,1.8,1,2.7c0.3,0.9,0.3,1.8,0.3,2.6c-0.1,1.4-0.5,2.8-1.2,4.1
			C186.3,575.1,185.1,576.5,183.6,577.9z"/>
		<polygon class="st0" points="202.9,577.4 203,577.5 203,577.5 		"/>
		<polygon class="st0" points="203.1,577.6 203.1,577.6 203.2,577.6 		"/>
		<polygon class="st0" points="203.4,577.8 203.3,577.7 203.3,577.8 		"/>
		<polygon class="st0" points="203.3,577.7 203.2,577.7 203.3,577.7 		"/>
		<polygon class="st0" points="203.2,577.7 203.2,577.6 203.2,577.7 		"/>
		<polygon class="st0" points="183.8,644.5 184.3,644.9 184.2,644.8 184.1,644.7 183.9,644.5 		"/>
		<polygon class="st0" points="203.1,577.6 203,577.5 203.1,577.6 		"/>
		<path class="st0" d="M225,595.2l-0.8-0.6l-0.7-0.6l-37.2,46.3c0.1-0.3,0.2-0.7,0.4-1.1c0.2-0.5,0.4-1.1,0.6-2l16.2-59.2l-1.2-0.9
			l-0.6,0.7l-39.7,49.4l0.7,0.6l0.7,0.6l37.3-46.7c-0.2,0.5-0.5,1.2-0.8,2.2c-0.3,1-0.5,1.6-0.5,1.9l-16.1,58.7l0.3,0.3l0,0l0.1,0.1
			l0,0l0.7,0.6L225,595.2z"/>
		<polygon class="st0" points="257.9,616.5 258.4,615.7 231.7,600.1 231.3,600.8 230.9,601.5 243.5,608.9 211.9,662.8 212.7,663.2 
			213.5,663.7 245.1,609.9 257.5,617.2 		"/>
		<polygon class="st0" points="257.6,617.2 257.5,617.2 257.5,617.2 		"/>
		<path class="st0" d="M279.1,623.8c-3.8-1.6-7.2-1.6-10.3-0.2c-1.3,0.5-2.4,1.3-3.3,2.2c-0.9,0.9-1.6,1.8-2.1,2.6
			c-0.6,0.9-1,1.6-1.3,2.3c-0.3,0.7-0.5,1.1-0.5,1.3c-1.5,3.5-1.6,7.2-0.4,11.1c0.6,1.7,1.3,3.3,2.2,4.9c0.9,1.6,1.9,3.2,2.9,4.8
			c1.1,1.7,2.1,3.4,3.1,5.2c1,1.7,1.8,3.5,2.4,5.4c0.6,1.9,0.9,3.9,0.8,6c0,2.1-0.6,4.4-1.6,6.9c-0.9,2.1-2,3.8-3.2,5
			c-1.3,1.2-2.7,2-4.2,2.4c-1.5,0.4-3,0.6-4.6,0.4c-1.6-0.2-3-0.5-4.5-1.1c-1.1-0.5-2.3-1.1-3.5-2c-1.2-0.8-2.2-1.9-2.9-3.3
			c-0.7-1.4-1.2-3-1.2-4.9c-0.1-1.9,0.4-4.2,1.5-6.8l-1.7-0.7c-0.9,2.3-1.5,4.6-1.6,6.9c-0.1,2.3,0.2,4.3,1.1,6.1
			c0.9,1.8,2.1,3.2,3.6,4.2c1.5,1,2.8,1.8,4.1,2.3c3.6,1.5,7,1.7,10.2,0.8c3.9-1.2,6.8-4.1,8.6-8.5c1.9-4.7,2.2-9.4,0.8-14
			c-0.6-2-1.5-4-2.5-5.8c-1-1.8-2.1-3.6-3.3-5.4c-1-1.5-1.9-3.1-2.8-4.6c-0.9-1.5-1.6-3.1-2.1-4.6c-0.5-1.6-0.8-3.2-0.8-4.8
			c0-1.6,0.3-3.4,1.1-5.2c0.5-1.2,1-2.2,1.5-3c0.5-0.8,1.2-1.6,1.9-2.4c0.8-0.8,1.7-1.5,2.8-2c2.5-1.2,5.4-1.1,8.8,0.3
			c1.7,0.7,3,1.5,4,2.5c1,1,1.7,2.1,2.1,3.4c0.4,1.1,0.5,2.3,0.4,3.4c-0.1,1.2-0.4,2.3-0.6,3.3c-0.3,1-0.7,2.2-1.3,3.5l1.7,0.7
			c0-0.1,0.2-0.4,0.5-1.2c0.3-0.7,0.7-1.6,1-2.7c0.3-1.1,0.6-2.3,0.7-3.6c0.1-1.3,0-2.6-0.4-4C285.4,627.7,283,625.4,279.1,623.8z"
			/>
		<path class="st0" d="M359.9,644.4c-1.4-0.7-2.9-1.1-4.5-1.2l-13.2-1.2l-5.7,63.1l-0.1,0.9l6.1,0.5l7.1,0.6c1.6,0.1,3.1,0,4.6-0.4
			c1.5-0.4,2.9-1.1,4.1-2.1c3-2.3,4.8-5.8,5.2-10.6l3.2-35.5c0.4-4.7-0.7-8.5-3.2-11.4C362.5,646,361.3,645.1,359.9,644.4z
			 M364.9,658.4l-3.2,35.4c-0.2,2.2-0.7,4-1.4,5.5c-0.8,1.5-1.7,2.7-2.8,3.7c-1.1,0.9-2.3,1.6-3.7,1.9c-1.3,0.4-2.7,0.5-4,0.3
			l-7.1-0.6l-4.2-0.4l5.4-60.3l4.2,0.4l7.1,0.6c1.3,0.1,2.6,0.5,3.9,1.1c1.2,0.6,2.3,1.5,3.3,2.6c0.9,1.1,1.6,2.5,2.1,4.1
			C365,654.4,365.1,656.3,364.9,658.4z"/>
		<path class="st0" d="M383.7,638.2c-0.5-0.2-0.9,0-1.1,0.6l-2.7,10.1c-0.1,0.6,0.1,1,0.6,1c0.7,0.2,1,0,1-0.6l2.8-10.1
			C384.5,638.5,384.3,638.2,383.7,638.2z"/>
		<polygon class="st0" points="407.2,642.7 407.2,642.7 407.2,642.7 		"/>
		<polygon class="st0" points="407.3,642.7 407.2,642.7 407.5,642.7 		"/>
		<path class="st0" d="M407.2,642.7L407.2,642.7L407.2,642.7L407.2,642.7L407.2,642.7l-0.1,0l0,0l-0.7,0.1l-6.1,65.2l1.9-0.2
			l2.1-19.7l15.3-1.6l6,18.8l1.9-0.2l-19.6-62.5L407.2,642.7z M407.1,642.7l-0.1,0l-0.1,0L407.1,642.7z M404.4,686.3l3.3-38.7
			l11.1,37.2L404.4,686.3z"/>
		<path class="st0" d="M460,667.5c0.9-1.1,1.5-2.4,2-3.9c0.7-1.9,1-4,1.1-6.3c0.1-2.3-0.2-4.6-0.8-6.8c-0.5-2.2-1.4-4.2-2.5-6.2
			c-1.1-2-2.5-3.7-4-5.1c-1.6-1.5-3.5-2.4-5.9-2.9c-2.3-0.4-5-0.3-8.1,0.5l-8.8,2.2l-1,0.3l0.3,1l15.4,61.2l0.9-0.2l0.9-0.2
			l-6.7-26.6l8-2c0.7-0.2,1.4-0.4,2.1-0.6c0.6-0.2,1.2-0.4,1.8-0.7l18.5,23.8l1.9-0.5l-18.8-24.1C457.9,669.5,459.2,668.6,460,667.5
			z M450.4,670.5l-8,2l-8.1-32l8-2c2.7-0.7,5.1-0.9,7.2-0.5c2,0.4,3.7,1.2,5.1,2.4c1.4,1.3,2.6,2.9,3.6,4.7c1.1,1.8,1.9,3.7,2.4,5.7
			c0.5,2.1,0.7,4.2,0.7,6.3c-0.1,2.1-0.4,4.1-1,5.9c-0.6,1.7-1.6,3.2-2.9,4.4C456.1,668.7,453.7,669.7,450.4,670.5z"/>
		<path class="st0" d="M498.7,631.9c-1.8-4.3-4.5-7.2-8.2-8.5c-1.4-0.5-2.9-0.8-4.5-0.7c-1.6,0.1-3.1,0.4-4.6,1l-12.2,5.1l24.5,58.4
			l0.3,0.8l5.6-2.4l6.6-2.8c1.5-0.6,2.8-1.5,3.9-2.5c1.1-1.1,2-2.3,2.6-3.7c1.6-3.4,1.5-7.4-0.4-11.8L498.7,631.9z M511.3,675.5
			c-0.6,1.3-1.3,2.5-2.3,3.4c-1,0.9-2.1,1.7-3.4,2.2l-6.6,2.8l-3.9,1.6l-23.4-55.8l3.9-1.6l6.6-2.8c1.2-0.5,2.6-0.8,4-0.8
			c1.4,0,2.7,0.2,4.1,0.7c1.3,0.5,2.6,1.4,3.8,2.6s2.2,2.8,3,4.8l13.8,32.8c0.8,2,1.3,3.9,1.3,5.5
			C512.1,672.7,511.9,674.2,511.3,675.5z"/>
		<polygon class="st0" points="558.9,653.2 539.2,665.1 525.8,643 541,633.8 540.6,633.2 540.1,632.4 524.9,641.6 507.7,613 
			527.1,601.3 526.7,600.7 526.2,599.8 505.2,612.5 505.7,613.4 538,666.7 538.4,667.5 559.7,654.6 559.3,653.8 		"/>
		<path class="st0" d="M591.5,617.3c-0.6-1.1-1.2-2-1.8-2.6c-0.5-0.7-0.8-1-0.9-1.1l-1.4,1.2c1,1.2,1.8,2.3,2.3,3.2
			c0.6,1,1.1,2.1,1.5,3.3c0.4,1.2,0.6,2.5,0.5,3.7c-0.2,2.8-1.6,5.3-4.3,7.6c-2.6,2.1-5.3,3-8,2.6c-1.3-0.2-2.5-0.6-3.6-1.2
			c-1.1-0.6-2-1.3-2.8-2c-0.8-0.7-1.6-1.6-2.6-2.8l-0.1-0.1l-23.2-28c-1.3-1.6-2.3-3.3-2.8-4.9s-0.7-3.1-0.6-4.6
			c0.2-1.4,0.6-2.8,1.3-4c0.7-1.2,1.6-2.3,2.6-3.1c1-0.8,2.2-1.5,3.6-1.9c1.4-0.5,2.8-0.6,4.4-0.5c1.5,0.1,3.1,0.7,4.7,1.5
			c1.6,0.9,3.1,2.2,4.6,4l1.5-1.2c-1.6-2-3.4-3.5-5.4-4.7s-3.9-1.7-5.9-1.7c-3.3,0-6.2,1-8.7,3.1c-1.2,1-2.2,2.2-3,3.6
			c-0.8,1.4-1.3,2.9-1.5,4.3c-0.5,3.8,0.8,7.6,3.8,11.2l23.1,28c0.1,0.1,0.4,0.5,0.9,1.2c0.5,0.7,1.2,1.4,2.1,2.1
			c0.9,0.8,1.9,1.5,3.1,2.2c1.2,0.7,2.6,1.1,4.1,1.3c3.2,0.5,6.3-0.5,9.5-3.1c3.1-2.6,4.8-5.5,5-8.9c0.1-1.5-0.1-2.9-0.6-4.2
			C592.7,619.6,592.2,618.4,591.5,617.3z"/>
		<polygon class="st0" points="585,546.1 584.4,546.7 610.6,570 594.5,588.1 568.3,564.8 567.8,565.4 567.1,566.2 615.1,608.9 
			615.7,608.1 616.3,607.5 595.8,589.2 611.9,571.1 632.4,589.4 633,588.8 633.6,588 585.7,545.3 		"/>
		<polygon class="st0" points="660.3,546.9 647.8,566.3 626.2,552.2 635.8,537.3 635.2,536.9 634.4,536.4 624.8,551.3 596.8,533.1 
			609.1,514.1 608.5,513.7 607.7,513.2 594.3,533.8 595.2,534.3 647.4,568.3 648.2,568.7 661.7,547.9 661,547.4 		"/>
		<path class="st0" d="M470.8,588.9c15.9-14.3,30.9-29.6,45.7-45c15.9-16.6,31.6-33.4,47.5-50c7.9-8.3,15.9-16.6,24-24.7
			c0.6-0.6,0.8-1.2,0.8-1.8c0,0,0,0,0,0c1.4-21.7,2.3-43.4,2.7-65.1c0.4-21.7,0.4-43.5-0.1-65.2c-0.3-12.3-0.7-24.5-1.3-36.8
			c-0.1-1.2-0.7-1.9-1.6-2.3c-0.1-0.3-0.3-0.6-0.5-0.8c-14.5-16.6-29.4-32.8-44.7-48.8c-15.3-15.9-30.9-31.5-46.8-46.7
			c-9-8.6-18.1-17.1-27.3-25.4c-0.9-0.8-1.9-0.9-2.8-0.5c-0.4-0.2-0.8-0.3-1.4-0.3c-21.8,0.8-43.6,1.4-65.3,1.6
			c-21.7,0.2-43.4,0.2-65.1-0.2c-12.2-0.2-24.4-0.5-36.7-0.9c-0.3,0-0.5,0-0.7,0.1c-0.5,0-1,0.1-1.5,0.4
			c-18.3,11.9-32.8,28.4-47.7,44.1c-16.2,17-32.3,34.1-48.5,51.1c-9,9.5-18.1,19-27.1,28.6c-0.8,0.4-1.5,1.1-1.4,2.3
			c0.3,21.4,0.6,42.7,0.9,64.1c0.3,21.3,0.6,42.5,0.9,63.8c0.2,12,0.3,24.1,0.5,36.1c0,1,0.5,1.8,1.2,2.2c0,0.4,0.1,0.8,0.4,1.2
			c11.3,18.1,25.7,33.9,40.8,48.8c15.8,15.5,32.4,30.1,49.3,44.5c9.7,8.3,19.5,16.5,29.2,24.7c0.3,0.2,0.6,0.4,1,0.6
			c0,0.3,0,0.7,0.1,1c0.4,1.5,1.8,2.1,3.2,1.8c21.7-3.4,43.8-3.5,65.7-2.8c22,0.7,44,2.3,66.1,2.3c12.3,0,24.6-0.5,36.8-2
			C467.8,589.6,469.5,590.1,470.8,588.9z M400.7,584.5c-22.2-0.9-44.3-2.4-66.5-1.9c-12,0.3-23.9,1.2-35.8,3c0-0.7-0.2-1.3-0.8-1.8
			c-17-14.4-34.2-28.7-50.9-43.5c-16.2-14.4-32.2-29.3-46.6-45.5c-7.7-8.7-14.9-17.9-21.1-27.8c-0.3-0.4-0.6-0.7-0.9-0.9
			c-0.3-21.3-0.6-42.6-0.9-63.9c-0.3-21.3-0.6-42.5-0.9-63.8c-0.2-11.6-0.3-23.2-0.5-34.8c16-16.8,32-33.7,48-50.5
			c8-8.5,16-16.9,24.1-25.4c7.7-8.1,15.3-16.3,23.2-24.3c8.2-8.2,16.8-16,26.5-22.4c21.7,0.7,43.5,1.1,65.2,1.3
			c21.7,0.1,43.4-0.1,65.1-0.6c12.2-0.3,24.4-0.7,36.7-1.1c0.4,0,0.7-0.1,1-0.2c16.1,14.7,31.9,29.7,47.4,45
			c15.7,15.5,31,31.4,45.9,47.6c8.4,9.1,16.8,18.4,25,27.8c0.2,0.2,0.4,0.4,0.6,0.5c1,21.4,1.5,42.7,1.6,64.1
			c0.1,21.7-0.3,43.5-1.1,65.2c-0.5,11.9-1.1,23.8-1.8,35.6c-14.9,14.9-29.3,30.2-43.8,45.5c-15.8,16.7-31.5,33.4-47.8,49.7
			c-7.6,7.6-15.4,15.1-23.3,22.3c-0.4-0.3-1-0.5-1.5-0.5C445.1,585.9,422.9,585.5,400.7,584.5z"/>
		<path class="st0" d="M473.3,493.2c0.6,1.3,2.5,1.6,3.6,0.9c1.3-0.8,1.5-2.3,0.9-3.6c-6.4-14-13.2-28.3-23.9-39.7
			c-2.7-2.8-5.6-5.4-8.8-7.7c-3.1-2.3-6.6-4.1-9.9-6.1c-3.3-2.1-5.9-4.5-7.6-8.1c-1.6-3.5-2.3-7.3-3.4-11
			c-2.1-7.1-6.6-14.7-14.7-15.5c-4.4-0.4-8.9,1.8-12.8,3.6c-3.6,1.7-7.1,3.8-10.4,6.1c-14,9.7-25.2,23.1-35.9,36.2
			c-11.7,14.4-22.7,29.4-32.8,44.9c-0.7,1-1.3,2-1.9,3c0-8.9-0.1-17.8,0-26.7c0.1-18.2,0.3-36.4,0.8-54.6c0.1-1.8,0.1-3.7,0.2-5.5
			c15.9-4.9,30.9-12.4,44.2-22.4c0.3-0.2,0.5-0.4,0.8-0.6c2.6,0.7,4.7,1.8,7.2,3.1c2.9,1.5,6,3.1,9.3,3.6c1.4,0.2,2.8-0.4,3.2-1.8
			c0.3-1.3-0.4-3-1.8-3.2c-3.2-0.6-5.6-1.9-8.6-3.4c-1.5-0.7-2.9-1.5-4.5-2.2c0.7-0.6,1.4-1.1,2-1.7c0.9-0.2,1.5-0.8,1.8-1.6
			c0.3-0.2,0.5-0.5,0.8-0.7c1-0.1,2,0,3,0c1.8,0.1,2.8,0.3,4.5,0.5c3,0.5,6,1.1,9,1.6c1.4,0.2,2.8-0.4,3.2-1.8
			c0.3-1.3-0.4-3-1.8-3.2c-3.1-0.5-6.2-1.2-9.2-1.7c-1.1-0.2-2.2-0.4-3.4-0.5c4-3.2,8-6.4,12.1-9.7c1.1-0.9,1-2.8,0-3.7
			c-1.1-1.1-2.6-0.9-3.7,0c-4.6,3.7-9.2,7.3-13.7,11c0-4.7-0.4-9.4-1.1-14c-0.2-1.4-2-2.2-3.2-1.8c-1.5,0.4-2.1,1.8-1.8,3.2
			c1,5.9,1.2,12,0.7,18c-0.6,0.5-1.2,1-1.8,1.5c-0.7-3.1-1.5-6.3-2.2-9.4c-0.3-1.3-1.9-2.3-3.2-1.8c-1.4,0.5-2.2,1.8-1.8,3.2
			c0.9,3.7,1.7,7.3,2.6,11c0,0.2,0.1,0.4,0.2,0.6c-9.6,7.3-20.1,13.5-31.3,18.1c-3.6,1.5-7.4,2.8-11.1,4c0.6-14.3,1.3-28.7,2.4-43
			c17.7-5.8,35.7-11.9,51.7-21.6c3.5-2.1,6.9-4.4,10-6.9c-0.1,0.4-0.1,0.8,0,1.2c0.9,4.4,3.2,8.6,6.5,11.7c1,0.9,2.7,1.1,3.7,0
			c0.9-1,1.1-2.7,0-3.7c-0.4-0.3-0.7-0.7-1-1c-0.2-0.2-0.3-0.4-0.5-0.6c-0.1-0.1-0.1-0.2-0.2-0.3c0,0-0.1-0.1-0.2-0.2
			c-0.1-0.1-0.2-0.2-0.2-0.3c-0.1-0.2-0.3-0.4-0.4-0.6c-0.3-0.4-0.5-0.9-0.8-1.3c-0.2-0.4-0.5-0.9-0.7-1.3c0-0.1-0.1-0.2-0.1-0.2
			c-0.1-0.2-0.2-0.4-0.2-0.6c-0.3-0.8-0.5-1.6-0.7-2.4c3.8,1.1,7.8,1.5,11.7,1.1c1.4-0.1,2.7-1.1,2.6-2.6c-0.1-1.3-1.2-2.8-2.6-2.6
			c-1.9,0.2-3.8,0.2-5.7,0c-0.3,0-0.5-0.1-0.8-0.1c0,0,0,0,0,0c0,0-0.1,0-0.1,0c-0.5-0.1-0.9-0.2-1.4-0.2c-0.7-0.1-1.4-0.3-2.1-0.5
			c3.8-2.4,7.6-4.9,11.3-7.3c1.2-0.8,1.7-2.3,0.9-3.6c-0.7-1.2-2.4-1.7-3.6-0.9c-4,2.6-8,5.2-12.1,7.8c0-0.2,0-0.3,0.1-0.5
			c0-0.2,0-0.3,0.1-0.5c0,0,0,0,0,0c0-0.3,0.1-0.7,0.1-1c0.1-0.8,0.2-1.5,0.3-2.3c0.4-2.6,0.9-5.3,1-7.9c0-1.4-1.2-2.7-2.6-2.6
			c-1.4,0.1-2.6,1.2-2.6,2.6c0,1-0.2,2-0.3,3c0,0.2,0,0.3-0.1,0.5c0,0,0,0,0,0c0,0.3-0.1,0.7-0.1,1c-0.1,0.8-0.2,1.5-0.3,2.3
			c-0.4,2.6-0.9,5.3-1,7.9c0,0.3,0.1,0.7,0.2,1c-0.1,0.1-0.2,0.2-0.3,0.3c-2.2,1.8-4.5,3.5-6.8,5c-1-4.5-2-9.1-3-13.6
			c-0.3-1.3-1.9-2.3-3.2-1.8c-1.4,0.5-2.2,1.8-1.8,3.2c1.1,4.8,2.1,9.5,3.2,14.3c0.1,0.3,0.2,0.5,0.3,0.7c-3.3,1.9-6.7,3.7-10.1,5.3
			c-8.4,4.1-17.1,7.4-25.9,10.5c-3.9,1.4-7.8,2.7-11.8,4c1.3-16.2,3-32.3,5.3-48.3c0.5-3.6,1.1-7.2,1.6-10.8c4.8-1.8,9.4-4.1,14-6.4
			c0.1,0.4,0.3,0.8,0.6,1.1c2.1,1.8,4.3,3.7,6.4,5.5c0.5,0.5,1.1,0.8,1.9,0.8c0.6,0,1.4-0.3,1.9-0.8c0.5-0.5,0.8-1.2,0.8-1.9
			c0-0.7-0.2-1.4-0.8-1.9c-2-1.7-4.1-3.5-6.1-5.2c2.6-1.3,5.2-2.5,7.9-3.5c1.6,1.4,3.2,2.8,4.9,4c1.4,1.1,2.9,2.1,4.4,3
			c1.5,0.8,3.1,1.5,4.8,1.5c1.4,0,2.7-1.2,2.6-2.6c-0.1-1.4-1.1-2.6-2.6-2.6c0,0,0.1,0,0.1,0c-0.1,0-0.2,0-0.3-0.1c0,0,0,0-0.1,0
			c0,0,0,0,0,0c-0.3-0.1-0.5-0.1-0.8-0.2c0,0,0,0,0,0c-0.1-0.1-0.3-0.1-0.4-0.2c-0.3-0.2-0.7-0.3-1-0.5c-0.7-0.4-1.4-0.8-2.1-1.3
			c-0.4-0.2-0.7-0.5-1.1-0.8c-0.2-0.2-0.4-0.3-0.6-0.5c0,0-0.4-0.3-0.4-0.3c-0.1-0.1-0.2-0.2-0.3-0.2c-0.2-0.1-0.4-0.3-0.5-0.4
			c-0.3-0.2-0.6-0.5-0.9-0.7c5.9-1.4,12-2,17.8-3.5c1.4-0.3,2.2-1.9,1.8-3.2c-0.4-1.4-1.9-2.2-3.2-1.8c-2.2,0.6-4.5,1-6.8,1.4
			c1.1-2.3,1.7-4.8,1.9-7.4c0.1-1.4-1.3-2.7-2.6-2.6c-1.5,0.1-2.5,1.2-2.6,2.6c0,0.3-0.1,0.6-0.1,1c-0.2,1.2-0.5,2.4-1,3.5
			c-0.4,1-0.9,1.9-1.5,2.7c-0.2,0.3-0.3,0.8-0.3,1.3c-2,0.4-4,0.8-5.9,1.3c-0.7,0.2-1.3,0.4-2,0.6c-0.1-0.1-0.3-0.2-0.4-0.4
			c-0.1-0.1-0.2-0.2-0.3-0.3c0.1-0.4,0.1-0.7,0-1.1c-0.5-3.3-1.1-6.5-1.6-9.8c-0.1-0.6-0.7-1.3-1.2-1.6c-0.6-0.3-1.4-0.5-2-0.3
			c-1.5,0.5-2.1,1.8-1.8,3.2c0.5,3.3,1.1,6.5,1.6,9.8c0.1,0.5,0.5,1.1,1,1.4c0,0.3,0,0.5,0,0.8c-3.4,1.4-6.8,3.1-10.1,4.7
			c-3.9,1.9-7.9,4-11.9,5.7c1.4-8.5,3-16.9,4.8-25.3c0.3-0.3,0.5-0.7,0.6-1.1c0.1-0.5,0.1-1.1-0.1-1.5c0.6-2.6,1.1-5.2,1.7-7.8
			c0.2-0.7,0.3-1.4,0.5-2.1c0.5,0,1-0.1,1.4-0.4c5.3-3.5,10.9-6.2,16.9-8.2c1.4-0.4,2.2-1.8,1.8-3.2c-0.4-1.3-1.9-2.3-3.2-1.8
			c-4.8,1.6-9.5,3.6-13.9,6.1c1.8-3.6,3.1-7.4,5.5-10.7c0.8-1.1,0.2-3-0.9-3.6c-1.4-0.7-2.7-0.2-3.6,0.9c-2.2,3-3.5,6.6-5.1,9.9
			c-0.1-0.9-0.3-1.7-0.4-2.6c-0.4-3.4-1.2-7-1-10.4c0.1-1.4-1.3-2.6-2.6-2.6c-1.5,0-2.6,1.2-2.6,2.6c-0.2,3.4,0.6,7,1,10.4
			c0.4,3.1,1.1,6.3,1.1,9.4c-0.4-0.6-0.7-1.2-1.1-1.8c-1.7-2.8-3.2-5.8-5.3-8.3c-0.9-1.1-2.8-1-3.7,0c-1,1.1-0.9,2.6,0,3.7
			c0,0,0,0,0,0c0,0.1,0.1,0.1,0.1,0.2c0.1,0.2,0.3,0.4,0.4,0.6c0.4,0.6,0.8,1.3,1.2,1.9c1,1.6,2,3.2,2.9,4.8
			c1.5,2.5,2.9,5.2,4.7,7.5c-0.2,0.8-0.4,1.6-0.5,2.3c-0.5-0.3-0.9-0.6-1.3-0.9c-0.1,0-0.2-0.2-0.3-0.2c-0.2-0.1-0.3-0.3-0.5-0.4
			c-0.4-0.3-0.8-0.7-1.2-1c-0.7-0.6-1.4-1.3-2.1-2c-2.8-2.7-5.5-5.6-8.9-7.8c-1.2-0.8-2.9-0.2-3.6,0.9c-0.7,1.3-0.3,2.8,0.9,3.6
			c0.4,0.2,0.8,0.5,1.1,0.8c0.1,0,0.1,0.1,0.1,0.1c0,0,0.1,0,0.1,0.1c0.2,0.1,0.3,0.3,0.5,0.4c0.7,0.6,1.5,1.3,2.2,1.9
			c1.5,1.4,2.9,2.8,4.4,4.2c2.2,2.1,4.6,4.2,7.4,5.6c-2.4,11.4-4.4,22.9-6.2,34.4c-1.4,9.2-2.6,18.5-3.7,27.8
			c-16.4-11.9-29.7-28-38.6-46.2c0.4-0.1,0.8-0.3,1.1-0.6c3.6-3.1,7.2-6.1,10.7-9.2c1-0.9,1-2.8,0-3.7c-1.1-1-2.6-1-3.7,0
			c-3.4,2.9-6.9,5.9-10.3,8.8c-0.9-2-1.7-4.1-2.4-6.1c0.3-0.3,0.6-0.7,0.8-1.2c1.7-5.5,2.7-11.2,4.3-16.7c0.4-1.3-0.5-2.9-1.8-3.2
			c-1.4-0.3-2.8,0.4-3.2,1.8c-1.1,3.6-1.9,7.3-2.8,10.9c0-0.5-0.3-1.1-0.7-1.6c-1.2-1.3-2-2.4-3-4c-1.1-1.8-2-3.6-3-5.5
			c-1.7-3.5-3.3-7.1-5.4-10.4c-0.8-1.2-2.3-1.7-3.6-0.9c-1.2,0.7-1.7,2.4-0.9,3.6c4.4,6.8,6.5,15.1,12.2,21c0.2,0.2,0.3,0.3,0.5,0.4
			c-0.1,0.1-0.2,0.3-0.2,0.4c-7.9-1.5-15-5.7-22.6-8c-3.2-1-4.6,4.1-1.4,5.1c4.4,1.3,8.5,3.2,12.7,4.9c4.1,1.7,8.2,2.9,12.6,3.5
			c0.1,0.2,0.1,0.4,0.2,0.5c-0.1,0-0.1,0-0.2,0c-9.4-0.3-18.7,0.7-27.8,3c-3.3,0.8-1.9,5.9,1.4,5.1c8.6-2.2,17.5-3.1,26.4-2.8
			c0.9,0,1.5-0.3,1.9-0.8c1.1,2.8,2.4,5.6,3.7,8.4c0,0-0.1,0-0.1,0c-3.8-0.6-7.6-1.2-11.4-1.8c-0.7-0.1-1.4-0.1-2,0.3
			c-0.5,0.3-1.1,0.9-1.2,1.6c-0.3,1.3,0.4,3,1.8,3.2c3.8,0.6,7.6,1.2,11.4,1.8c0.7,0.1,1.4,0.1,2-0.3c0.5-0.3,1-0.8,1.2-1.4
			c6.5,12.3,14.9,23.6,25,33.3c4.4,4.2,9.1,8.1,14,11.6c0.6,0.4,1.3,0.5,1.9,0.3c-0.8,7.2-1.5,14.3-2.1,21.5
			c-1.1,13-1.9,26-2.5,39.1c-0.1-0.1-0.2-0.1-0.4-0.2c-19.2-6.7-36.5-18.5-50-33.6c0.2-0.3,0.4-0.6,0.5-1c1.9-7.8,3.5-15.7,4.6-23.7
			c0.2-1.4-0.3-2.8-1.8-3.2c-1.2-0.3-3,0.4-3.2,1.8c-1,7.1-2.4,14.2-4,21.3c-1.7-2.1-3.3-4.3-4.9-6.6c0.7-5.7,2.2-11.5,4.5-16.9
			c0.5-1.3-0.6-2.9-1.8-3.2c-1.5-0.4-2.7,0.5-3.2,1.8c-1.2,2.9-2.2,5.8-2.9,8.8c-0.2-0.4-0.5-0.8-0.7-1.2c-0.7-1.3-1.1-2.2-1.5-3.4
			c-0.5-1.3-0.9-2.6-1.2-4c-0.2-0.6-0.3-1.3-0.4-1.9c-0.1-0.4-0.1-0.7-0.2-1.1c0-0.1,0-0.1,0-0.1c0-0.2,0-0.4-0.1-0.5
			c-0.2-1.4-1.1-2.7-2.6-2.6c-1.3,0.1-2.8,1.2-2.6,2.6c0.6,5.4,2.2,10.6,5,15.2c-0.8,0.7-1.2,1.9-0.5,3.1c-6.5-1.4-13-2.8-19.6-4.3
			c-1.4-0.3-2.8,0.4-3.2,1.8c-0.4,1.3,0.4,2.9,1.8,3.2c7.2,1.6,14.4,3.1,21.6,4.7c0.9,0.2,1.9-0.1,2.5-0.7c0,0,0,0.1,0.1,0.1
			c0.1,0.4,0.4,0.8,0.8,1.1c0.2,0.3,0.4,0.6,0.6,0.8c-5.6,1-11.2,2.3-16.7,3.9c-1.4,0.4-2.2,1.9-1.8,3.2c0.4,1.4,1.9,2.2,3.2,1.8
			c5.9-1.7,11.9-3.1,17.9-4.1c0.3,0,0.5-0.2,0.7-0.3c2.2,2.8,4.5,5.6,6.9,8.3c-4.1,2.2-7.5,5.4-11.6,7.6c-1.2,0.7-1.7,2.4-0.9,3.6
			c0.8,1.2,2.3,1.6,3.6,0.9c4.1-2.2,7.6-5.5,11.7-7.7c0.3-0.2,0.6-0.4,0.8-0.7c8.9,8.9,19.1,16.5,30.2,22.4c5.6,3,11.5,5.5,17.5,7.6
			c0.5,0.2,1.1,0.1,1.5,0c-0.2,3.6-0.3,7.1-0.4,10.7c-0.7,18.3-1,36.6-1.1,54.8c-0.1,18.2,0,36.5,0.1,54.7c0,1,0,2,0,3
			c-0.5,0-0.9,0.1-1.4,0.1c-11.5,1.2-22.6,7.7-27.7,18.3c-0.6,1.3-0.3,2.8,0.9,3.6c1.2,0.7,3,0.3,3.6-0.9c4.2-8.7,13-14.3,22.6-15.6
			c0.8-0.1,1.6-0.2,2.5-0.2c1,1.3,3.2,1.4,4.3,0.1c2.4,0.2,4.7,0.7,6.9,1.6c5.2,1.9,9.4,6.1,14.2,8.9c5.3,3,11,3.5,16.7,1.2
			c5.2-2.2,9.6-5.9,14.4-8.7c2.6-1.5,5.3-2.5,8.2-2.9c3.3-0.4,6.7-0.1,10,0.6c6.9,1.5,13.3,4.6,19.8,7.1c6.8,2.6,13.9,4.4,21.3,3.4
			c6.3-0.9,12.3-4,15.8-9.4c1.8-2.9-2.7-5.5-4.5-2.7c-2.7,4.3-7.7,6.4-12.6,7c-6.2,0.7-12.3-1-18-3.2c-6.5-2.5-12.8-5.6-19.6-7.1
			c-7-1.6-14.1-1.6-20.7,1.5c-5,2.4-9.3,6.1-14.2,8.7c-2.1,1.1-4.4,1.9-6.8,2c-2.7,0.1-5.1-0.9-7.4-2.2c-5-2.9-9.2-6.9-14.7-9
			c-2.6-1-5.4-1.6-8.3-1.9c0-5.8-0.1-11.5-0.1-17.3c1,0.2,2-0.1,2.7-1.2c9.6-15.2,20-29.9,31.1-43.9c5.5-6.9,11.1-13.6,16.9-20.2
			c5.4-6,11-11.8,17.2-16.9c6-4.9,12.7-9.3,20-12c3.4-1.3,6.8-1.8,9.8,0.6c2.4,1.9,4.1,4.9,5.1,7.8c2.7,7.4,3.3,15.6,9.6,21.1
			c3,2.6,6.6,4.4,10,6.4c3.1,1.8,5.9,3.9,8.6,6.3c11.1,10,18.1,23.7,24.4,37.1C471.7,489.8,472.5,491.5,473.3,493.2z M383.7,330.4
			C383.7,330.4,383.7,330.4,383.7,330.4C383.7,330.4,383.7,330.4,383.7,330.4C383.7,330.4,383.7,330.4,383.7,330.4z M270.9,262.8
			C270.9,262.8,270.9,262.8,270.9,262.8C270.9,262.8,270.9,262.8,270.9,262.8C270.9,262.8,270.9,262.8,270.9,262.8z"/>
		<path class="st0" d="M494.3,382.1c-2.5-5.3-4.2-11-9.9-13.8c-5.1-2.5-11.2-2.3-16.4-0.2c-6,2.5-10.4,7.3-14.1,12.5
			c-4.5,6.5-8.2,13.6-12.2,20.4c-4.5,7.6-8.9,15.2-13.4,22.8c-1.7,2.9,2.8,5.6,4.5,2.7c7.5-12.8,14.8-25.7,22.5-38.4
			c3-4.9,6.3-10,11.2-13.3c4.1-2.8,9.5-4,14.3-2.3c5,1.8,6.6,7.2,8.6,11.7c1.2,2.6,2.6,5.2,4.8,7c2.2,1.8,4.7,3,7.4,4
			c5,1.7,10.4,2.6,13.8,7c3.3,4.3,4.5,10,6.2,15.1c4.3,13.4,12.3,25.6,22.9,34.9c1.1,0.9,2.7,1,3.7,0c1-1,1.1-2.8,0-3.7
			c-9.5-8.3-16.9-19.1-21-31.1c-1.9-5.5-3.1-11.5-6.3-16.5c-1.6-2.6-3.7-4.8-6.3-6.4c-2.5-1.5-5.3-2.4-8-3.3c-2.6-0.8-5.2-1.5-7.6-3
			C496.7,386.7,495.4,384.5,494.3,382.1z"/>
	</g>
</g>
</svg>
